<svg xmlns="http://www.w3.org/2000/svg" role="img" viewBox="-1.05 -2.18 158.73 30.48"><path fill="#8232FF" d="M14 23h-4v-2h4v2zm-4-4v2H8v-2h2zm6 2h-2v-2h2v2zm-8-2H6v-2h2v2zm10 0h-2v-2h2v2zM6 17H4v-2h2v2zm14 0h-2v-2h2v2zm2-12h-.001v10H20V5H4v10H2V3h20v2z"/><path fill="#8232FF" d="M8 11h2v2H8zm2 2h2v2h-2zm2-2h2v2h-2zm2-2h2v2h-2z"/><path fill="#201F24" d="M43.7354 25h-3.5933V.94287h3.5933V11.207H56.771V.94287h3.5933V25H56.771V14.2041H43.7354V25zm19.0639-4.979c0-1.6973.5532-3.0186 1.6597-3.9639 1.1172-.9453 2.664-1.4179 4.6406-1.4179h5.0434v-1.2569c0-2.2451-1.187-3.3677-3.561-3.3677-1.1494 0-2.0464.2632-2.6909.7896-.6338.5264-.9775 1.2568-1.0313 2.1914h-3.3676c.1074-1.7939.8003-3.19042 2.0786-4.18945 1.289-.99902 3.0132-1.49853 5.1723-1.49853 1.085 0 2.0679.15039 2.9488.45117.8808.30078 1.563.69287 2.0464 1.17627 1.2031 1.14944 1.8046 2.65334 1.8046 4.51174v9.0718h2.4493V25h-3.1421c-.8379 0-1.4448-.1611-1.8208-.4834-.376-.3223-.5908-.8218-.6446-1.4985l-.0322-.8218h-.2417c-.376.9453-1.0903 1.7026-2.143 2.272-1.042.5693-2.2505.854-3.6255.854-1.708 0-3.0616-.4781-4.0606-1.4341-.9883-.9668-1.4824-2.2559-1.4824-3.8672zm3.4644-.7251v.9185c0 .7841.2631 1.3857.7895 1.8046.5371.4082 1.2837.6123 2.2397.6123 1.4932 0 2.6749-.435 3.545-1.3051.8701-.8809 1.3051-2.0518 1.3051-3.5127v-.8379h-4.6084c-1.0312 0-1.8369.2095-2.4169.6284-.5694.4082-.854.9722-.854 1.6919zM84.4091 7.646h6.0103v2.8359H84.812V25h-3.3999V10.6108c0-.94527.2202-1.67574.6606-2.19137.4512-.51562 1.23-.77343 2.3364-.77343zM94.8847 25h-3.3999V7.646h2.9648l.4673 3.2227h.2256c.5371-1.11724 1.3159-1.98735 2.3364-2.6104 1.0206-.63379 2.1807-.95068 3.4801-.95068 1.902 0 3.373.63379 4.415 1.90136 1.053 1.26762 1.58 3.00242 1.58 5.20462V25h-3.433V14.7358c0-2.9648-1.283-4.4472-3.8506-4.4472-1.4395 0-2.5997.5156-3.4805 1.5468-.8701 1.0313-1.3052 2.3848-1.3052 4.0606V25zm13.8593-8.7173c0-2.8037.736-5.0005 2.208-6.59032 1.471-1.58984 3.475-2.38476 6.01-2.38476 2.395 0 4.297.70361 5.704 2.11084 1.429 1.42874 2.143 3.35694 2.143 5.78464 0 .5694-.043 1.1924-.129 1.8692h-12.439v.9668c0 1.375.44 2.4868 1.321 3.3354.881.8379 2.036 1.2568 3.464 1.2568 1.128 0 2.09-.2631 2.885-.7895.805-.5264 1.342-1.2354 1.611-2.127h3.351c-.343 1.6973-1.235 3.0562-2.674 4.0767-1.429 1.0205-3.164 1.5308-5.205 1.5308-2.557 0-4.571-.8111-6.042-2.4331-1.472-1.6221-2.208-3.8243-2.208-6.6065zm3.497-2.0464v.4029h9.136v-.564c0-1.2139-.408-2.1914-1.225-2.9326-.816-.752-1.89-1.128-3.222-1.128-1.386 0-2.514.3921-3.384 1.1763-.87.7735-1.305 1.7886-1.305 3.0454zm13.279 5.4463h3.4c0 .9453.344 1.6973 1.031 2.2559.698.5478 1.638.8218 2.82.8218 1.117 0 1.993-.231 2.626-.6929.634-.4727.951-1.1118.951-1.9175 0-1.1924-.741-1.9175-2.224-2.1753l-3.528-.6606c-3.169-.5586-4.754-2.1216-4.754-4.689 0-1.6543.607-2.9541 1.821-3.89941 1.214-.94532 2.852-1.41797 4.915-1.41797 2.073 0 3.716.48877 4.93 1.46631 1.225.96679 1.848 2.26127 1.869 3.88327h-3.367c-.065-1.8476-1.209-2.77146-3.432-2.77146-1.042 0-1.853.21486-2.434.64456-.58.4297-.87 1.0205-.87 1.7724 0 1.2354.881 1.982 2.643 2.2398l3.303.5962c3.105.5586 4.657 2.1538 4.657 4.7856 0 1.6651-.645 2.981-1.934 3.9478-1.278.9668-3.002 1.4502-5.172 1.4502-2.234 0-4.002-.5103-5.301-1.5308-1.3-1.0312-1.95-2.4009-1.95-4.1089zm14.874 0h3.4c0 .9453.344 1.6973 1.032 2.2559.698.5478 1.638.8218 2.819.8218 1.118 0 1.993-.231 2.627-.6929.634-.4727.951-1.1118.951-1.9175 0-1.1924-.742-1.9175-2.224-2.1753l-3.529-.6606c-3.169-.5586-4.753-2.1216-4.753-4.689 0-1.6543.607-2.9541 1.82-3.89941 1.214-.94532 2.853-1.41797 4.915-1.41797 2.073 0 3.717.48877 4.931 1.46631 1.224.96679 1.847 2.26127 1.869 3.88327h-3.368c-.064-1.8476-1.208-2.77146-3.432-2.77146-1.042 0-1.853.21486-2.433.64456-.58.4297-.87 1.0205-.87 1.7724 0 1.2354.881 1.982 2.642 2.2398l3.304.5962c3.104.5586 4.656 2.1538 4.656 4.7856 0 1.6651-.644 2.981-1.933 3.9478-1.279.9668-3.003 1.4502-5.173 1.4502-2.234 0-4.001-.5103-5.301-1.5308-1.3-1.0312-1.95-2.4009-1.95-4.1089z"/></svg>